<svg xmlns="http://www.w3.org/2000/svg" width="30" height="30" viewBox="0 0 30 30">
  <path id="Trazado_5513" data-name="Trazado 5513" d="M207,85a15,15,0,1,1,15,15A15,15,0,0,1,207,85Zm6.029-8.971A12.676,12.676,0,1,0,222,72.308,12.586,12.586,0,0,0,213.029,76.029Zm5.849,16.782a1.391,1.391,0,0,1,0-1.969l5.762-5.849-5.906-5.849a1.375,1.375,0,0,1,0-1.962,1.4,1.4,0,0,1,1.969,0l6.88,6.9A1.391,1.391,0,0,1,227.625,86l-6.779,6.8a1.394,1.394,0,0,1-1.969.007Z" transform="translate(-207 -70)" fill="#fff" opacity="0.6"/>
</svg>
